<svg width="99" height="64" viewBox="0 0 99 64" fill="none" xmlns="http://www.w3.org/2000/svg">
<g id="soc">
<g id="hover" filter="url(#filter0_d_1_51)">
<path fill-rule="evenodd" clip-rule="evenodd" d="M73.1602 36.2983C73.5387 34.8428 73.5387 31.8245 73.5387 31.8245C73.5387 31.8245 73.5539 28.7912 73.1602 27.3358C72.9481 26.5391 72.3272 25.9108 71.5397 25.6964C70.1011 25.2981 64.3465 25.2981 64.3465 25.2981C64.3465 25.2981 58.5919 25.2981 57.1532 25.6812C56.3808 25.8956 55.7446 26.5391 55.5327 27.3358C55.1541 28.7912 55.1541 31.8093 55.1541 31.8093C55.1541 31.8093 55.1541 34.8428 55.5327 36.2829C55.7449 37.0795 56.3658 37.7079 57.1532 37.9222C58.6069 38.3206 64.3465 38.3206 64.3465 38.3206C64.3465 38.3206 70.1011 38.3206 71.5397 37.9375C72.3272 37.7231 72.9481 37.0949 73.1602 36.2983ZM67.2994 31.8093L62.5141 34.5976V29.0211L67.2994 31.8093Z" fill="url(#paint0_linear_1_51)"/>
</g>
<path id="fb" d="M36.8744 26.6121C36.898 26.5854 37.0085 26.4981 37.4426 26.4981L38.759 26.4976C39.222 26.4976 39.5985 26.1203 39.5985 25.6564V23.8446C39.5985 23.3815 39.2225 23.0042 38.7603 23.0034L37.4081 23C36.1034 23 35.3217 23.0911 34.528 23.907C33.7379 24.7192 33.3202 25.8529 33.3202 27.1855V28.8695H31.703C31.24 28.8695 30.8634 29.2468 30.8634 29.7106V31.7143C30.8634 32.1781 31.24 32.5554 31.703 32.5554H33.3202V39.1589C33.3202 39.6227 33.6968 40 34.1598 40H35.9493C36.4123 40 36.7889 39.6227 36.7889 39.1589V32.5556H38.7657C39.2287 32.5556 39.6052 32.1781 39.6052 31.7146L39.6063 29.7107C39.6063 29.4061 39.4408 29.1241 39.1743 28.975C39.0508 28.906 38.9071 28.8695 38.759 28.8695H36.7889V27.1277C36.7889 26.7816 36.8354 26.6563 36.8744 26.6121Z" fill="#52BFFF"/>
<path id="inst" fill-rule="evenodd" clip-rule="evenodd" d="M11.2535 23.6864H4.28918C1.92413 23.6864 0 25.6106 0 27.9757V34.94C0 37.3052 1.92413 39.2293 4.28918 39.2293H11.2535C13.6187 39.2293 15.5429 37.3051 15.5429 34.94V27.9757C15.543 25.6106 13.6187 23.6864 11.2535 23.6864ZM7.77141 27.4529C5.56302 27.4529 3.76641 29.2495 3.76641 31.4579C3.76641 33.6662 5.56302 35.4627 7.77141 35.4627C9.9798 35.4627 11.7764 33.6662 11.7764 31.4579C11.7764 29.2495 9.9798 27.4529 7.77141 27.4529ZM7.77141 34.0836C6.32351 34.0836 5.14544 32.9057 5.14544 31.4578C5.14544 30.0098 6.32342 28.8318 7.77141 28.8318C9.2194 28.8318 10.3974 30.0098 10.3974 31.4578C10.3974 32.9057 9.21931 34.0836 7.77141 34.0836ZM11.23 26.5796C11.4177 26.3911 11.6787 26.2835 11.9444 26.2835C12.211 26.2835 12.4721 26.3911 12.6596 26.5796C12.8481 26.7671 12.9556 27.0282 12.9556 27.2948C12.9556 27.5605 12.8481 27.8216 12.6596 28.0101C12.4711 28.1976 12.211 28.3061 11.9444 28.3061C11.6787 28.3061 11.4176 28.1976 11.23 28.0101C11.0415 27.8216 10.9331 27.5606 10.9331 27.2948C10.9331 27.0282 11.0414 26.7671 11.23 26.5796Z" fill="#52BFFF"/>
</g>
<defs>
<filter id="filter0_d_1_51" x="30.1541" y="0.29808" width="68.3846" height="63.0225" filterUnits="userSpaceOnUse" color-interpolation-filters="sRGB">
<feFlood flood-opacity="0" result="BackgroundImageFix"/>
<feColorMatrix in="SourceAlpha" type="matrix" values="0 0 0 0 0 0 0 0 0 0 0 0 0 0 0 0 0 0 127 0" result="hardAlpha"/>
<feOffset/>
<feGaussianBlur stdDeviation="12.5"/>
<feColorMatrix type="matrix" values="0 0 0 0 0.572549 0 0 0 0 0.839216 0 0 0 0 1 0 0 0 0.5 0"/>
<feBlend mode="normal" in2="BackgroundImageFix" result="effect1_dropShadow_1_51"/>
<feBlend mode="normal" in="SourceGraphic" in2="effect1_dropShadow_1_51" result="shape"/>
</filter>
<linearGradient id="paint0_linear_1_51" x1="78.6187" y1="12.961" x2="58.0836" y2="56.143" gradientUnits="userSpaceOnUse">
<stop stop-color="#C6EAFF"/>
<stop offset="1" stop-color="#81D0FF"/>
</linearGradient>
</defs>
</svg>
